. 
  
http://www.torrenting.com/        :     Greatest Movie Tracker on The Net!!!
 
http://www.Torrenting.com          :     Once & For all ;)


               www . Torrenting . Com 

(((((((((((((= Enjoy No RAR releases =))))))))))))))))))))


...................................NFO:....................................

.[img]http://img580.imageshack.us/img580/7994/ironcladm.jpg[/img]


[color=blue][size=5][b]Ironclad.2011.BDRip.XVID.AC3.HQ.Hive-CM8[/b][/size][/color]


[b]Thx Hive


CM8 Doing It Right The First Time :D


Source Bluray

Video: 720x400 @bitrate 1800 2pass
Audio: English DTS to AC3 5.1 @448
Sample: yes included[/b]


[url]http://www.imdb.com/title/tt1233301/[/url]


General
Complete name                    : Ironclad.2011.BDRip.XVID.AC3.HQ.Hive-CM8.avi
Format                           : AVI
Format/Info                      : Audio Video Interleave
File size                        : 1.90 GiB
Duration                         : 2h 0mn
Overall bit rate                 : 2 255 Kbps
Writing application              : Nandub v1.0rc2
Writing library                  : Nandub build 1853/release

Video
ID                               : 0
Format                           : MPEG-4 Visual
Format profile                   : Advanced Simple@L5
Format settings, BVOP            : 1
Format settings, QPel            : Yes
Format settings, GMC             : No warppoints
Format settings, Matrix          : Default (H.263)
Muxing mode                      : Packed bitstream
Codec ID                         : XVID
Codec ID/Hint                    : XviD
Duration                         : 2h 0mn
Bit rate                         : 1 798 Kbps
Width                            : 720 pixels
Height                           : 400 pixels
Display aspect ratio             : 16:9
Frame rate                       : 24.000 fps
Color space                      : YUV
Chroma subsampling               : 4:2:0
Bit depth                        : 8 bits
Scan type                        : Progressive
Compression mode                 : Lossy
Bits/(Pixel*Frame)               : 0.260
Stream size                      : 1.52 GiB (80%)
Writing library                  : XviD 1.2.1 (UTC 2008-12-04)

Audio
ID                               : 1
Format                           : AC-3
Format/Info                      : Audio Coding 3
Mode extension                   : CM (complete main)
Codec ID                         : 2000
Duration                         : 2h 0mn
Bit rate mode                    : Constant
Bit rate                         : 448 Kbps
Channel(s)                       : 6 channels
Channel positions                : Front: L C R, Side: L R, LFE
Sampling rate                    : 48.0 KHz
Bit depth                        : 16 bits
Compression mode                 : Lossy
Stream size                      : 387 MiB (20%)
Alignment                        : Split accross interleaves
Interleave, duration             : 42 ms (1.00 video frame)
Interleave, preload duration     : 500 ms


Cast:
Paul Giamatti    ...    King John
Jason Flemyng    ...    Beckett
James Purefoy    ...    Marshall
Brian Cox        ...    Albany
Kate Mara        ...    Lady Isabel


Plot:
In 13th-century England, a small group of Knights Templar fight
to defend Rochester Castle against the tyrannical King John. 


[img]http://img853.imageshack.us/img853/7072/35242693.png[/img]
[img]http://img543.imageshack.us/img543/1564/irir.png[/img]
[img]http://img97.imageshack.us/img97/9973/iririr.png[/img]
[img]http://img850.imageshack.us/img850/4351/iriririr.png[/img]
[img]http://img64.imageshack.us/img64/307/irirririr.png[/img]
[img]http://img801.imageshack.us/img801/9092/irirrirrir.png[/img]
[img]http://img17.imageshack.us/img17/6260/irirrirrrir.png[/img]
[img]http://img40.imageshack.us/img40/286/irirrrirrrir.png[/img]
[img]http://img16.imageshack.us/img16/2381/irirrrirrrrir.png[/img]


Cover + Labels:
[img]http://img13.imageshack.us/img13/5328/ironcladhirescover14786.jpg[/img]

[img]http://img121.imageshack.us/img121/5576/ironlabel.jpg[/img]

[img]http://img98.imageshack.us/img98/3355/ironlabel2.jpg[/img]



Greetz

ViSiON,SANTi,MAGNET,THC,T0XiC,LKRG,IMAGiNE,WBZ,FLAWL3SS,NOVA
D2U,Vik,Rapeseed,SAFC,goldadvance,MEMORY100,KaN1vE,Unevano,
Pinnz,Wayne,Mr Hive and all P2P groups 
Great Work Guys :D

FYS

CM8@hushmail.com